# xmcd CD database file
#
# Track frame offsets:
#	182
#	15070
#	22377
#	32572
#	42897
#	58547
#	70435
#	87897
#	98047
#	107492
#	121205
#	132292
#	146827
#	159460
#	178075
#	189660
#	204857
#
# Disc length: 2858 seconds
#
# Revision: 2
# Processed by: cddbd v1.4b41PL1 Copyright (c) Steve Scherf et al.
# Submitted via: Feurio! 1.50.2ß - http://www.feurio.com
#
DISCID=e10b2811
DTITLE=Various Artist - The Tango
DYEAR=1900
DGENRE=
TTITLE0=Julio Cortazon Orchestra - La Cumparsita
TTITLE1=Julio Cortazon Orchestra - Adios Muchachos
TTITLE2=Alee Gould Orchestra - El Choclo
TTITLE3=Armand Frydman and Deni Hekimian - Rio De La Plata
TTITLE4=Julio Cortazon Orchestra - Je Yous Aime
TTITLE5=Armand Frydman and Deni Hekimian - Rotango
TTITLE6=Xavier Delisle - Blue Tango
TTITLE7=Armand Frydman and Deni Hekimian - El Rebelde
TTITLE8=Julio Cortazon Orchestra - Noche De Reyes
TTITLE9=Julio Cortazon Orchestra - Uno
TTITLE10=Alee Gould Orchestra - Mon Amour
TTITLE11=Arenas - Tango
TTITLE12=Julio Cortazon Orchestra - Le Plus Beau Tango Du Monde
TTITLE13=Armand Frydman and Deni Hekimian - Buenos Aires 1925
TTITLE14=Los Exoticos - Pikinito Tango
TTITLE15=Julio Cortazon Orchestra - Poema
TTITLE16=Julio Cortazon Orchestra - Mama
EXTD=
EXTT0=
EXTT1=
EXTT2=
EXTT3=
EXTT4=
EXTT5=
EXTT6=
EXTT7=
EXTT8=
EXTT9=
EXTT10=
EXTT11=
EXTT12=
EXTT13=
EXTT14=
EXTT15=
EXTT16=
PLAYORDER=
